<?xml version="1.0" encoding="utf-8"?>
<!-- Generator: Adobe Illustrator 23.0.3, SVG Export Plug-In . SVG Version: 6.00 Build 0)  -->
<svg version="1.1" id="Capa_1" xmlns="http://www.w3.org/2000/svg" xmlns:xlink="http://www.w3.org/1999/xlink" x="0px" y="0px"
	 viewBox="0 0 512 512" style="enable-background:new 0 0 512 512;" xml:space="preserve">
<style type="text/css">
	.st0{fill:#83B6C6;}
	.st1{fill:#A1CE9D;}
	.st2{fill:#C2DEBF;}
	.st3{fill:#ACD1A7;}
	.st4{fill:#1F415A;}
</style>
<path class="st0" d="M314.9,502h164.4c9.6,0,17.3-7.8,17.3-17.3V338.6c0-9.6-7.8-17.3-17.3-17.3H314.9c-9.6,0-17.3,7.8-17.3,17.3
	v146.1C297.6,494.2,305.3,502,314.9,502z"/>
<path class="st1" d="M429.6,410.2l-32.5-17.3l-32.5,17.3v-88.9h65.1V410.2z"/>
<path class="st2" d="M297.6,241.4V489c0,6.7-5.5,12.2-12.2,12.2H28.2c-6.7,0-12.2-5.5-12.2-12.2V22.2C16,15.5,21.5,10,28.2,10h257.1
	c6.7,0,12.2,5.5,12.2,12.2v129.4"/>
<path class="st3" d="M65.9,350.8h181.7v100.3H65.9V350.8z"/>
<path class="st3" d="M247.6,292V110.5c0-5.6-4.5-10.1-10.1-10.1c-11,0.2-21.4-5.2-27.6-14.3c-12.3-17-32.2-26.7-53.1-26.1
	c-20.9-0.6-40.8,9.2-53.1,26.1c-6.2,9.1-16.6,14.5-27.6,14.3c-5.6,0-10.1,4.5-10.1,10.1V292H247.6z"/>
<path class="st4" d="M247.6,302H65.9c-5.5,0-10-4.5-10-10V110.5c0-11.1,9-20.1,20.1-20.1h0.2c7.7,0.2,14.9-3.6,19.2-9.9
	c0.1-0.1,0.1-0.2,0.2-0.2c14.2-19.6,37-30.9,61.2-30.2c24.2-0.6,47,10.7,61.2,30.3c0.1,0.1,0.1,0.1,0.2,0.2
	c4.3,6.3,11.5,10,19.2,9.9c0.1,0,0.1,0,0.2,0c11.1,0,20.1,9,20.1,20.1V292C257.6,297.5,253.1,302,247.6,302z M75.9,282h161.7V110.5
	c0,0,0-0.1-0.1-0.1c-14.3,0.2-27.7-6.7-35.8-18.5c-10.4-14.2-27-22.4-44.7-21.9c-0.2,0-0.4,0-0.6,0c-17.6-0.5-34.3,7.7-44.6,21.9
	c-8.1,11.8-21.5,18.7-35.8,18.5c-0.1,0-0.1,0.1-0.1,0.1V282z"/>
<path class="st4" d="M247.6,461.2H65.9c-5.5,0-10-4.5-10-10V350.8c0-5.5,4.5-10,10-10h181.7c5.5,0,10,4.5,10,10v100.3
	C257.6,456.7,253.1,461.2,247.6,461.2z M75.9,441.2h161.7v-80.3H75.9V441.2z"/>
<path class="st4" d="M297.6,206.3c-4.2,0-8-2.7-9.4-6.6c-1.4-3.9-0.2-8.4,3.1-11.1c3.3-2.7,8-3,11.6-0.8c3.6,2.2,5.4,6.6,4.5,10.7
	C306.3,203,302.2,206.3,297.6,206.3z"/>
<path class="st4" d="M479.3,311.3H314.9c-2.5,0-5,0.3-7.3,1v-70.9c0-5.5-4.5-10-10-10c-5.5,0-10,4.5-10,10V489c0,1.2-1,2.2-2.2,2.2
	H28.2c-1.2,0-2.2-1-2.2-2.2V22.2c0-1.2,1-2.2,2.2-2.2h257.1c1.2,0,2.2,1,2.2,2.2v129.4c0,5.5,4.5,10,10,10c5.5,0,10-4.5,10-10V22.2
	c0-12.2-10-22.2-22.2-22.2H28.2C16,0,6,10,6,22.2V489c0,12.2,10,22.2,22.2,22.2h257.1c5,0,9.6-1.7,13.4-4.5
	c4.5,3.3,10.1,5.3,16.2,5.3h164.5c15.1,0,27.3-12.3,27.3-27.3V338.6C506.7,323.5,494.4,311.3,479.3,311.3z M419.6,331.3v62.3
	l-17.8-9.5c-2.9-1.6-6.4-1.6-9.4,0l-17.8,9.5v-62.3H419.6z M486.7,484.7c0,4-3.3,7.3-7.3,7.3H314.9c-4,0-7.3-3.3-7.3-7.3V338.6
	c0-4,3.3-7.3,7.3-7.3h39.7v78.9c0,3.5,1.8,6.8,4.8,8.6s6.7,1.9,9.8,0.3l27.8-14.8l27.8,14.8c1.5,0.8,3.1,1.2,4.7,1.2
	c1.8,0,3.6-0.5,5.2-1.4c3-1.8,4.8-5.1,4.8-8.6v-78.9h39.7c4,0,7.3,3.3,7.3,7.3V484.7z"/>
</svg>
