<?xml version="1.0" encoding="utf-8"?>
<!-- Generator: Adobe Illustrator 23.0.3, SVG Export Plug-In . SVG Version: 6.00 Build 0)  -->
<svg version="1.1" id="Capa_1" xmlns="http://www.w3.org/2000/svg" xmlns:xlink="http://www.w3.org/1999/xlink" x="0px" y="0px"
	 viewBox="0 0 512 512" style="enable-background:new 0 0 512 512;" xml:space="preserve">
<style type="text/css">
	.st0{fill:#83B6C6;}
	.st1{fill:#BED8E5;}
	.st2{fill:#A1CE9D;}
	.st3{fill:#1F415A;}
</style>
<path class="st0" d="M156.5,502h199.5V373.2c0-12.3-10-22.2-22.2-22.2h-155c-12.3,0-22.2,10-22.2,22.2V502z"/>
<path class="st1" d="M173.8,351h164.7c9.6,0,17.4-7.8,17.4-17.4V217.3c0-9.6-7.8-17.4-17.4-17.4H173.8c-9.6,0-17.4,7.8-17.4,17.4
	v116.3C156.5,343.2,164.3,351,173.8,351z"/>
<path class="st2" d="M288.8,440.1l-32.6-17.3l-32.6,17.3V351h65.2V440.1z"/>
<path class="st2" d="M288.8,289.1l-32.6-17.3l-32.6,17.3V200h65.2V289.1z"/>
<path class="st3" d="M460.4,282c5.5,0,10-4.5,10-10V120.7c0-3.7-2-7-5.2-8.8L261,1.2c-3-1.6-6.6-1.6-9.5,0L47.2,111.9
	c-3.2,1.7-5.2,5.1-5.2,8.8V502c0,5.5,4.5,10,10,10h408.4c5.5,0,10-4.5,10-10V362c0-5.5-4.5-10-10-10c-5.5,0-10,4.5-10,10v130h-84.5
	V373.2c0-7.9-2.8-15.1-7.6-20.7c4.7-4.9,7.6-11.6,7.6-18.9V217.3c0-15.1-12.3-27.4-27.4-27.4H173.8c-15.1,0-27.4,12.3-27.4,27.4
	v116.3c0,7.3,2.9,14,7.6,18.9c-4.7,5.6-7.6,12.8-7.6,20.7V492H62V126.6L256.2,21.4l194.2,105.3V272C450.4,277.5,454.9,282,460.4,282
	z M233.6,210h45.2v62.4l-17.9-9.5c-1.5-0.8-3.1-1.2-4.7-1.2c-1.6,0-3.2,0.4-4.7,1.2l-17.9,9.5V210z M166.5,217.3
	c0-4.1,3.3-7.4,7.4-7.4h39.8v79.1c0,3.5,1.8,6.8,4.8,8.6c3,1.8,6.7,1.9,9.8,0.3l27.9-14.8l27.9,14.8c1.5,0.8,3.1,1.2,4.7,1.2
	c1.8,0,3.6-0.5,5.2-1.4c3-1.8,4.8-5.1,4.8-8.6V210h39.8c4.1,0,7.4,3.3,7.4,7.4v116.3c0,4.1-3.3,7.4-7.4,7.4H173.8
	c-4.1,0-7.4-3.3-7.4-7.4V217.3z M278.8,361v62.4l-17.9-9.5c-1.5-0.8-3.1-1.2-4.7-1.2c-1.6,0-3.2,0.4-4.7,1.2l-17.9,9.5V361H278.8z
	 M166.5,373.2c0-6.8,5.5-12.2,12.2-12.2h34.9v79.1c0,3.5,1.8,6.8,4.8,8.6c3,1.8,6.7,1.9,9.8,0.3l27.9-14.8l27.9,14.8
	c1.5,0.8,3.1,1.2,4.7,1.2c1.8,0,3.6-0.5,5.2-1.4c3-1.8,4.8-5.1,4.8-8.6V361h34.9c6.8,0,12.2,5.5,12.2,12.2V492H166.5V373.2z"/>
<path class="st3" d="M420.4,154.5c-1.6,0-3.2-0.4-4.8-1.2L256.2,66.9L96.8,153.3c-4.9,2.6-10.9,0.8-13.6-4c-2.6-4.9-0.8-10.9,4-13.6
	l164.2-89c3-1.6,6.6-1.6,9.5,0l164.2,89c4.9,2.6,6.7,8.7,4,13.6C427.4,152.6,424,154.5,420.4,154.5z"/>
<path class="st3" d="M460.4,326.8c-4.2,0-8-2.7-9.4-6.6c-1.4-3.9-0.2-8.3,2.9-11c3.3-2.8,8.1-3.1,11.7-0.9c3.5,2.2,5.3,6.4,4.5,10.4
	C469.3,323.4,465.1,326.8,460.4,326.8z"/>
</svg>
