<?xml version="1.0" encoding="utf-8"?>
<!-- Generator: Adobe Illustrator 23.0.3, SVG Export Plug-In . SVG Version: 6.00 Build 0)  -->
<svg version="1.1" id="Capa_1" xmlns="http://www.w3.org/2000/svg" xmlns:xlink="http://www.w3.org/1999/xlink" x="0px" y="0px"
	 viewBox="0 0 512 512" style="enable-background:new 0 0 512 512;" xml:space="preserve">
<style type="text/css">
	.st0{fill:#C2DEBF;}
	.st1{fill:#83B6C6;}
	.st2{fill:#A1CE9D;}
	.st3{fill:#1F415A;}
</style>
<path class="st0" d="M416,436v66h-60V396h20C398.1,396,416,413.9,416,436z"/>
<path class="st0" d="M376,110v20H136v-20c0-55.2,44.8-100,100-100h40C331.2,10,376,54.8,376,110z"/>
<path class="st0" d="M376,130l-28.3,28.3c-7.5,7.5-17.7,11.7-28.3,11.7H192.6c-10.6,0-20.8-4.2-28.3-11.7L136,130H376z"/>
<path class="st1" d="M156,310h200v192H156V310z"/>
<path class="st2" d="M296,310v86l-40-20l-40,20v-86H296z"/>
<path class="st0" d="M156,396v106H96v-66c0-22.1,17.9-40,40-40H156z"/>
<path class="st3" d="M316,220c5.5,0,10-4.5,10-10s-4.5-10-10-10s-10,4.5-10,10S310.5,220,316,220z"/>
<path class="st3" d="M296,100c5.5,0,10-4.5,10-10s-4.5-10-10-10s-10,4.5-10,10S290.5,100,296,100z"/>
<path class="st3" d="M196,220c5.5,0,10-4.5,10-10s-4.5-10-10-10s-10,4.5-10,10S190.5,220,196,220z"/>
<path class="st3" d="M220.5,258.3c10.8,7.2,23.2,10.8,35.5,10.8s24.8-3.6,35.5-10.8c4.6-3.1,5.8-9.3,2.8-13.9s-9.3-5.8-13.9-2.8
	c-14.9,9.9-34.1,9.9-48.9,0c-4.6-3.1-10.8-1.8-13.9,2.8C214.6,249.1,215.9,255.3,220.5,258.3z"/>
<path class="st3" d="M216,100h40c5.5,0,10-4.5,10-10s-4.5-10-10-10h-40c-5.5,0-10,4.5-10,10S210.5,100,216,100z"/>
<path class="st3" d="M146,386h-10c-27.6,0-50,22.4-50,50v66c0,5.5,4.5,10,10,10h320c5.5,0,10-4.5,10-10v-66c0-27.6-22.4-50-50-50
	h-10v-76c0-2.6-1-5-2.6-6.7c9.1-13.3,15.6-28.1,19.2-43.7c24.3-3.2,43.4-24,43.4-49.6c0-24.1-17.2-44.3-40-49v-60.5
	c0-1.4-0.3-2.7-0.8-4C378.5,42.2,332.1,0,276,0h-40c-56.1,0-102.5,42.2-109.2,96.6c-0.5,1.2-0.8,2.6-0.8,4V161
	c-22.8,4.6-40,24.8-40,49c0,25.6,19.1,46.4,43.4,49.6c3.6,15.7,10.2,30.4,19.2,43.7c-1.6,1.8-2.6,4.1-2.6,6.7V386z M206,320v76
	c0,3.5,1.8,6.7,4.7,8.5c2.9,1.8,6.6,2,9.7,0.4l35.5-17.8l35.5,17.8c3.1,1.5,6.8,1.4,9.7-0.4c2.9-1.8,4.7-5,4.7-8.5v-76h40v172H166
	V320H206z M286,320v59.8l-25.5-12.8c-2.8-1.4-6.1-1.4-8.9,0L226,379.8V320H286z M106,436c0-16.5,13.5-30,30-30h10v86h-40V436z
	 M376,406c16.5,0,30,13.5,30,30v56h-40v-86H376z M406,210c0,13.3-8.6,24.4-20.3,28.4c0.2-2.8,0.3-5.6,0.3-8.4v-48.3
	C397.6,185.8,406,197,406,210z M236,20h40c49.6,0,90,40.4,90,90v10H146v-10C146,60.4,186.4,20,236,20z M351.9,140l-11.2,11.2
	c-5.7,5.7-13.2,8.8-21.2,8.8H192.6c-8,0-15.6-3.1-21.2-8.8L160.1,140H351.9z M106,210c0-13,8.4-24.2,20-28.3V230
	c0,2.8,0.1,5.6,0.3,8.4C114.6,234.4,106,223.3,106,210z M146,230v-75.9l11.2,11.2c9.4,9.4,22,14.6,35.4,14.6h126.9
	c13.4,0,25.9-5.2,35.4-14.6l11.2-11.2V230c0,25-8.4,49.7-25.2,70H171.2C155.3,280.8,146,256.4,146,230z"/>
</svg>
