<?xml version="1.0" encoding="utf-8"?>
<!-- Generator: Adobe Illustrator 23.0.3, SVG Export Plug-In . SVG Version: 6.00 Build 0)  -->
<svg version="1.1" id="Capa_1" xmlns="http://www.w3.org/2000/svg" xmlns:xlink="http://www.w3.org/1999/xlink" x="0px" y="0px"
	 viewBox="0 0 544.4 535.9" style="enable-background:new 0 0 544.4 535.9;" xml:space="preserve">
<style type="text/css">
	.st0{fill:#C3DFC1;}
	.st1{fill:#BED8E5;}
	.st2{fill:#1F415A;}
</style>
<g>
	<path class="st0" d="M398.2,186.3L398.2,186.3c7.3-24.9,30.2-42,56.1-42l2.2,0l-18.3,77.7L398.2,186.3z"/>
	<path class="st0" d="M501,278.8l-29.2-3.7c-20.8-57.2-75.6-98.1-140.1-98.1H221.7c-82.3,0-149,66.7-149,149l0,0
		c0,56.6,31.5,105.8,78,131v39c0,10.5,8.5,19,19,19h58c10.5,0,19-8.5,19-19V475h84v21.1c0,10.5,8.5,19,19,19h58c10.5,0,19-8.5,19-19
		v-55.3c21.9-18.1,38.5-42.4,47.2-70.2l27-3.4c9.6-1.2,16.8-9.3,16.8-19v-50.4C517.7,288.2,510.5,280,501,278.8z"/>
</g>
<g>
	<circle class="st1" cx="227.7" cy="103.1" r="32"/>
	<circle class="st1" cx="309" cy="203.1" r="32"/>
</g>
<path class="st2" d="M502.2,268.9L479,266c-7.1-17.3-17.2-33.3-29.8-47.1l17.1-72.4c0.7-3,0-6.1-1.9-8.5c-1.9-2.4-4.8-3.8-7.8-3.8
	l-2.2,0c0,0,0,0,0,0c-28.4,0-53.9,17.8-64,44c-7.1-2.8-14.4-5.2-21.9-6.9c-5.4-1.3-10.8,2.1-12,7.4c-1.3,5.4,2.1,10.8,7.4,12
	c25.5,6,48.2,18.9,66.1,36.8c0.7,1,1.5,1.8,2.4,2.5c13,13.7,23.4,30.1,30,48.5c1.3,3.5,4.4,6,8.2,6.5l29.2,3.7c4.6,0.6,8,4.5,8,9.1
	v50.4c0,4.6-3.4,8.5-8,9.1l-27,3.4c-3.9,0.5-7.1,3.2-8.3,6.9c-8,25.6-23.2,48.3-44.1,65.5c-2.3,1.9-3.6,4.7-3.6,7.7v55.3
	c0,5-4,9-9,9h-58c-5,0-9-4-9-9V475c0-5.5-4.5-10-10-10h-84c-5.5,0-10,4.5-10,10v21.1c0,5-4,9-9,9h-58c-5,0-9-4-9-9v-39
	c0-3.7-2-7-5.2-8.8c-44.9-24.4-72.8-71.2-72.8-122.2c0-76.6,62.3-139,139-139h12.5c5.5,0,10-4.5,10-10s-4.5-10-10-10h-12.5
	c-74.2,0-136.7,51.1-154.1,120h-7.3c-13.5,0-24.5-11-24.5-24.5s11-24.5,24.5-24.5c5.5,0,10-4.5,10-10s-4.5-10-10-10
	c-24.5,0-44.5,20-44.5,44.5s20,44.5,44.5,44.5h3.6c-0.7,6.2-1.1,12.5-1.1,18.9c0,56.3,29.7,108.2,78,136.8v33.2c0,16,13,29,29,29h58
	c16,0,29-13,29-29V485h64v11.1c0,16,13,29,29,29h58c16,0,29-13,29-29v-50.7c20.3-17.9,35.6-40.4,44.7-65.7l20.8-2.6
	c14.5-1.8,25.5-14.2,25.5-28.9v-50.4C527.7,283.1,516.8,270.7,502.2,268.9z M443.6,155.5L432.4,203c-7.5-6.1-15.5-11.5-23.9-16.1
	C414,171,427.5,159.1,443.6,155.5z"/>
<path class="st2" d="M413.8,281.1c1.9-1.9,2.9-4.4,2.9-7.1s-1.1-5.2-2.9-7.1c-1.9-1.9-4.4-2.9-7.1-2.9s-5.2,1.1-7.1,2.9
	c-1.9,1.9-2.9,4.4-2.9,7.1s1.1,5.2,2.9,7.1c1.9,1.9,4.4,2.9,7.1,2.9S411.9,283,413.8,281.1z"/>
<path class="st2" d="M309,71.4c-5.5,0-10,4.5-10,10v39.7c0,5.5,4.5,10,10,10s10-4.5,10-10V81.4C319,75.9,314.5,71.4,309,71.4z"/>
<path class="st2" d="M309,55.1c2.6,0,5.2-1.1,7.1-2.9c1.9-1.9,2.9-4.4,2.9-7.1s-1.1-5.2-2.9-7.1c-1.9-1.9-4.4-2.9-7.1-2.9
	c-2.6,0-5.2,1.1-7.1,2.9c-1.9,1.9-2.9,4.4-2.9,7.1c0,2.6,1.1,5.2,2.9,7.1C303.8,54,306.3,55.1,309,55.1z"/>
<path class="st2" d="M227.7,50.1c5.5,0,10-4.5,10-10v-17c0-5.5-4.5-10-10-10s-10,4.5-10,10v17C217.7,45.6,222.2,50.1,227.7,50.1z"/>
<path class="st2" d="M119.7,336.5c5.5,0,10-4.5,9.9-10.1l0-0.4c0-5.5-4.5-10-10-10s-10,4.5-10,10l0,0.5
	C109.7,332.1,114.2,336.5,119.7,336.5C119.7,336.5,119.7,336.5,119.7,336.5z"/>
<path class="st2" d="M163.5,421.8c1.6,1,3.4,1.5,5.2,1.5c3.4,0,6.7-1.7,8.6-4.8c2.9-4.7,1.4-10.9-3.3-13.7
	c-17.4-10.6-31-26.8-38.2-45.8c-2-5.2-7.8-7.7-12.9-5.8c-5.2,2-7.7,7.8-5.8,12.9C125.9,389.2,142.4,408.9,163.5,421.8z"/>
<path class="st2" d="M227.7,145.1c23.2,0,42-18.8,42-42s-18.8-42-42-42s-42,18.8-42,42S204.6,145.1,227.7,145.1z M227.7,81.1
	c12.1,0,22,9.9,22,22s-9.9,22-22,22s-22-9.9-22-22S215.6,81.1,227.7,81.1z"/>
<path class="st2" d="M273.2,225.1h-49.5c-5.5,0-10,4.5-10,10s4.5,10,10,10h130c5.5,0,10-4.5,10-10s-4.5-10-10-10h-9
	c4-6.4,6.2-13.9,6.2-22c0-23.2-18.8-42-42-42s-42,18.8-42,42C267,211.1,269.3,218.7,273.2,225.1z M309,181.1c12.1,0,22,9.9,22,22
	s-9.9,22-22,22s-22-9.9-22-22S296.8,181.1,309,181.1z"/>
</svg>
