<?xml version="1.0" encoding="utf-8"?>
<!-- Generator: Adobe Illustrator 23.0.3, SVG Export Plug-In . SVG Version: 6.00 Build 0)  -->
<svg version="1.1" id="Capa_1" xmlns="http://www.w3.org/2000/svg" xmlns:xlink="http://www.w3.org/1999/xlink" x="0px" y="0px"
	 viewBox="0 0 728 512.3" style="enable-background:new 0 0 728 512.3;" xml:space="preserve">
<style type="text/css">
	.st0{fill:#C1ECC4;}
	.st1{fill:#BDD8E5;}
	.st2{fill:#1E415A;}
</style>
<polygon class="st0" points="103.5,146.4 156,146.4 203.5,109.9 226,29.8 183.7,41.7 122.3,94.8 "/>
<polygon class="st1" points="644.8,401.7 532.3,341.7 490.2,435 500.8,482.5 545.1,502.3 595.6,484.9 "/>
<polygon class="st0" points="532.7,341.3 645.1,401.3 687.3,308 676.6,260.6 632.4,240.7 581.9,258.1 "/>
<path class="st2" d="M266,60c5.5,0,10-4.5,10-10s-4.5-10-10-10s-10,4.5-10,10S260.5,60,266,60z"/>
<path class="st2" d="M301.1,68.8c29.5,12,53.4,35.7,65.7,65.1c2.1,5.1,8,7.5,13.1,5.4c5.1-2.1,7.5-8,5.4-13.1
	c-14.3-34.2-42.2-61.9-76.6-75.9c-5.1-2.1-10.9,0.4-13,5.5C293.5,60.9,296,66.7,301.1,68.8z"/>
<path class="st2" d="M98.3,134.7c-1.3-0.5-2.6-1.1-3.9-1.6c-2.7-1.3-5.9-1.2-8.6,0.1s-4.7,3.8-5.3,6.8C77.5,153,76,166.5,76,180v52
	H66c-27.6,0-50,22.4-50,50c0,39.6,25.8,74.4,63.6,86.1C96.5,450.8,169.6,512,256,512c86.5,0,159.5-61.3,176.4-143.9
	c37.8-11.6,63.6-46.5,63.6-86.1c0-27.6-22.4-50-50-50h-10v-52C436,80.7,355.3,0,256,0c-11,0-22.1,1-32.8,3c-5.2,1-8.7,5.8-8.1,11
	c0.3,2.5,0.5,5,0.7,7.5C156.5,30.1,109.1,75.7,98.3,134.7z M36,282c0-16.5,13.5-30,30-30h10v35.9l-2.9-2.9c-3.9-3.9-10.2-3.9-14.1,0
	c-3.9,3.9-3.9,10.2,0,14.1L76,316.1V332c0,4.5,0.2,9,0.5,13.5C52.4,334.2,36,309.4,36,282z M446,252c16.5,0,30,13.5,30,30
	c0,27.4-16.4,52.2-40.5,63.5c0.3-4.5,0.5-9,0.5-13.5v-15.9l17.1-17.1c3.9-3.9,3.9-10.2,0-14.1s-10.2-3.9-14.1,0l-2.9,2.9V252H446z
	 M256,20c88.2,0,160,71.8,160,160v152c0,87.9-70.4,160-160,160c-78.6,0-145-56.2-157.8-133.6c-1.4-8.7-2.2-17.6-2.2-26.4
	c0-33.1,0-117.5,0-152c0-8.1,0.6-16.3,1.8-24.3c2.1,0.7,4.3,1.2,6.4,1.8c0,0,0.1,0,0.1,0c0.1,0,0.2,0,0.3,0.1
	c7,1.6,14.2,2.5,21.3,2.5c65.4,0,110-63.9,110-129.6c0-0.1,0-0.2,0-0.3V30c0-2.9-0.1-5.8-0.2-8.7C242.5,20.4,249.2,20,256,20z
	 M215.5,41.7C210.7,96.9,172.3,140,126,140c-2.8,0-5.5-0.2-8.3-0.5C126.3,89.4,165.5,50.3,215.5,41.7z"/>
<path class="st2" d="M356,252c-22.1,0-40,17.9-40,40v5.3c0,31.4,17.4,59.6,45.5,73.7c4.9,2.5,10.9,0.5,13.4-4.5
	c2.5-4.9,0.5-10.9-4.5-13.4c-10.4-5.2-18.9-13-24.9-22.4c3.3,0.9,6.8,1.4,10.4,1.4c22.1,0,40-17.9,40-40S378.1,252,356,252z
	 M356,312c-11,0-20-9-20-20s9-20,20-20s20,9,20,20S367,312,356,312z"/>
<path class="st2" d="M196,292c0-22.1-17.9-40-40-40s-40,17.9-40,40s17.9,40,40,40c3.6,0,7.1-0.5,10.4-1.4
	c-5.9,9.4-14.4,17.2-24.9,22.4c-4.9,2.5-6.9,8.5-4.5,13.4c2.5,4.9,8.5,6.9,13.4,4.5c28.1-14,45.5-42.3,45.5-73.7V292z M136,292
	c0-11,9-20,20-20s20,9,20,20s-9,20-20,20S136,303,136,292z"/>
<path class="st2" d="M236,312c-5.5,0-10,4.5-10,10s4.5,10,10,10h40c5.5,0,10-4.5,10-10s-4.5-10-10-10H236z"/>
<path class="st2" d="M256,452c32.7,0,60-26.5,60-60v-10c0-16.5-13.5-30-30-30h-60c-16.5,0-30,13.5-30,30v10
	C196,424.7,222.5,452,256,452z M256,432c-14.5,0-27.5-7.7-34.6-20h69.2C283.6,424.1,270.5,432,256,432z M216,382c0-5.5,4.5-10,10-10
	h60c5.5,0,10,4.5,10,10v10h-80V382z"/>
<path class="st2" d="M326,212c-5.5,0-10,4.5-10,10s4.5,10,10,10h60c5.5,0,10-4.5,10-10s-4.5-10-10-10H326z"/>
<path class="st2" d="M126,232h60c5.5,0,10-4.5,10-10s-4.5-10-10-10h-60c-5.5,0-10,4.5-10,10S120.5,232,126,232z"/>
<g>
	<path class="st2" d="M519.4,501.4c32.4,17.3,72.9,5.1,90.3-27.4l75.5-141.2c17.3-32.4,5.1-72.9-27.4-90.3
		c-32.4-17.3-72.9-5.1-90.3,27.4L492,411.1C474.6,443.6,486.9,484.1,519.4,501.4z M538.3,352.7l20.6,11c3.2,1.7,7.3,0.5,9-2.7
		s0.5-7.3-2.7-9l-20.6-11l34.6-64.7c13.9-25.9,46.3-35.8,72.2-21.9c25.9,13.9,35.8,46.3,21.9,72.2l-34.6,64.7l-20.6-11
		c-3.2-1.7-7.3-0.5-9,2.7c-1.7,3.2-0.5,7.3,2.7,9l20.6,11l-34.6,64.7c-13.9,25.9-46.3,35.8-72.2,21.9
		c-25.9-13.9-35.8-46.3-21.9-72.2L538.3,352.7z"/>
	<path class="st2" d="M550.7,512.3c-11.3,0-22.5-2.8-32.7-8.2c-33.9-18.1-46.7-60.4-28.6-94.3l75.5-141.2
		c8.8-16.4,23.4-28.4,41.2-33.8c17.8-5.4,36.7-3.6,53.1,5.2c33.9,18.1,46.7,60.4,28.6,94.3l-75.5,141.2
		c-8.8,16.4-23.4,28.4-41.2,33.8C564.3,511.3,557.5,512.3,550.7,512.3z M626.4,237.7c-6.2,0-12.5,0.9-18.6,2.8
		c-16.3,4.9-29.7,15.9-37.7,30.9l-75.5,141.2c-16.6,31-4.8,69.7,26.1,86.2l0,0c15,8,32.2,9.7,48.5,4.8c16.3-4.9,29.7-15.9,37.7-30.9
		l75.5-141.2c16.6-31,4.8-69.7-26.1-86.2C647,240.2,636.7,237.7,626.4,237.7z M550.7,498.9c-9,0-18-2.1-26.5-6.6
		c-27.4-14.7-37.8-48.9-23.1-76.3l36-67.4l23.2,12.4c1.8,1,4,0.3,5-1.5c0.5-0.9,0.6-1.9,0.3-2.8c-0.3-0.9-0.9-1.7-1.8-2.2
		l-23.2-12.4l36-67.4c7.1-13.3,18.9-23,33.4-27.3c14.4-4.4,29.7-2.9,42.9,4.2c13.3,7.1,23,18.9,27.3,33.4s2.9,29.7-4.2,42.9
		l-36,67.4l-23.2-12.4c-0.9-0.5-1.9-0.6-2.8-0.3c-0.9,0.3-1.7,0.9-2.2,1.8c-0.5,0.9-0.6,1.9-0.3,2.8c0.3,0.9,0.9,1.7,1.8,2.2
		l23.2,12.4l-36,67.4C590.4,488.1,570.8,498.9,550.7,498.9z M539.6,356.8l-33.2,62.1c-13.1,24.5-3.8,55.1,20.7,68.2
		c24.5,13.1,55.1,3.8,68.2-20.7l33.2-62.1l-17.9-9.6c-2.3-1.2-3.9-3.2-4.7-5.7s-0.5-5.1,0.7-7.4s3.2-3.9,5.7-4.7
		c2.5-0.8,5.1-0.5,7.4,0.7l17.9,9.6l33.2-62.1c6.3-11.8,7.7-25.5,3.8-38.4c-3.9-12.9-12.6-23.5-24.4-29.8
		c-11.8-6.3-25.5-7.7-38.4-3.8c-12.9,3.9-23.5,12.6-29.8,24.4l-33.2,62.1l17.9,9.6c2.3,1.2,3.9,3.2,4.7,5.7s0.5,5.1-0.7,7.4
		c-2.5,4.7-8.4,6.5-13.1,4L539.6,356.8z"/>
</g>
<g>
	<path class="st2" d="M594.4,375.1c-1.7,3.2-5.8,4.5-9,2.7c-3.2-1.7-4.5-5.8-2.7-9c1.7-3.2,5.8-4.5,9-2.7
		C594.9,367.9,596.2,371.9,594.4,375.1z"/>
	<path class="st2" d="M588.5,381.7c-1.5,0-3.1-0.4-4.5-1.1c-4.7-2.5-6.5-8.4-4-13.1c2.5-4.7,8.4-6.5,13.1-4c2.3,1.2,3.9,3.2,4.7,5.7
		s0.5,5.1-0.7,7.4v0C595.3,379.8,592,381.7,588.5,381.7z M588.5,368.3c-0.4,0-0.7,0.1-1.1,0.2c-0.9,0.3-1.7,0.9-2.2,1.8
		c-1,1.8-0.3,4,1.5,5c1.8,1,4,0.3,5-1.5c0.5-0.9,0.6-1.9,0.3-2.8c-0.3-0.9-0.9-1.7-1.8-2.2C589.7,368.5,589.1,368.3,588.5,368.3z"/>
</g>
</svg>
