<?xml version="1.0" encoding="utf-8"?>
<!-- Generator: Adobe Illustrator 23.0.3, SVG Export Plug-In . SVG Version: 6.00 Build 0)  -->
<svg version="1.1" id="Capa_1" xmlns="http://www.w3.org/2000/svg" xmlns:xlink="http://www.w3.org/1999/xlink" x="0px" y="0px"
	 viewBox="0 0 537.3 498.8" style="enable-background:new 0 0 537.3 498.8;" xml:space="preserve">
<style type="text/css">
	.st0{fill:#C3DFC1;}
	.st1{fill:#1F415A;}
</style>
<g>
	<path id="XMLID_7_" class="st0" d="M217.7,17.4h100.6c108.1,0,195.7,87.6,195.7,195.7s-87.6,195.7-195.7,195.7h-81.2L170,475.9v-73
		C85,381.6,22,304.7,22,213.1C22,105.1,109.6,17.4,217.7,17.4L217.7,17.4z"/>
	<path id="XMLID_6_" class="st1" d="M170,485.9c-1.3,0-2.6-0.2-3.8-0.8c-3.7-1.5-6.2-5.2-6.2-9.2v-65.3
		c-40.7-11.9-77.3-36.5-103.7-70C27.3,304,12,259.9,12,213.1C12,99.7,104.3,7.4,217.7,7.4h100.6C431.7,7.4,524,99.7,524,213.1
		c0,35-9,69.6-25.9,100c-2.7,4.8-8.8,6.6-13.6,3.9c-4.8-2.7-6.6-8.8-3.9-13.6c15.3-27.4,23.4-58.7,23.4-90.3
		c0-102.4-83.3-185.7-185.7-185.7H217.7C115.3,27.4,32,110.7,32,213.1c0,85.3,57.7,159.4,140.4,180.1c4.4,1.1,7.6,5.1,7.6,9.7v48.8
		l50-50c1.9-1.9,4.4-2.9,7.1-2.9h81.2c37.8,0,74.2-11.3,105.2-32.6c4.5-3.1,10.8-2,13.9,2.6c3.1,4.5,2,10.8-2.6,13.9
		c-34.4,23.7-74.7,36.2-116.5,36.2h-77.1L177,483C175.1,484.9,172.6,485.9,170,485.9L170,485.9z"/>
	<path id="XMLID_5_" class="st1" d="M463.1,354.8c-2.6,0-5.2-1.1-7.1-2.9s-2.9-4.4-2.9-7.1s1.1-5.2,2.9-7.1s4.4-2.9,7.1-2.9
		s5.2,1.1,7.1,2.9s2.9,4.4,2.9,7.1s-1.1,5.2-2.9,7.1C468.3,353.7,465.7,354.8,463.1,354.8z"/>
	<path id="XMLID_4_" class="st1" d="M271.1,203.1h-2.6v-37.8c0-5.5-4.5-10-10-10c-5.5,0-10,4.5-10,10v37.8h-31.3v-37.8
		c0-5.5-4.5-10-10-10s-10,4.5-10,10v47.8c0,5.5,4.5,10,10,10h41.3v38c0,5.5,4.5,10,10,10c5.5,0,10-4.5,10-10v-38h2.6
		c5.5,0,10-4.5,10-10S276.6,203.1,271.1,203.1z"/>
	<path id="XMLID_3_" class="st1" d="M159.4,271.1h-47.9c-4,0-7.7-2.4-9.2-6.2s-0.7-8,2.2-10.9l31-31c9-9,14-21,14-33.8
		c0-7.7-6.3-13.9-13.9-13.9s-13.9,6.3-13.9,13.9c0,5.5-4.5,10-10,10s-10-4.5-10-10c0-18.7,15.2-33.9,33.9-33.9s33.9,15.2,33.9,33.9
		c0,18.1-7.1,35.1-19.9,48l-13.9,13.9h23.8c5.5,0,10,4.5,10,10S165,271.1,159.4,271.1L159.4,271.1z"/>
	<path id="XMLID_2_" class="st1" d="M376.6,271.1c-1.5,0-3-0.3-4.5-1.1c-4.9-2.5-6.9-8.5-4.5-13.4l40.7-81.3h-31.7
		c-5.5,0-10-4.5-10-10s4.5-10,10-10h47.9c3.5,0,6.7,1.8,8.5,4.7c1.8,2.9,2,6.6,0.4,9.7l-47.9,95.8
		C383.8,269.1,380.2,271.1,376.6,271.1L376.6,271.1z"/>
	<path id="XMLID_1_" class="st1" d="M304.3,287.1c-0.9,0-1.7-0.1-2.6-0.3c-5.3-1.4-8.5-6.9-7.1-12.2l34.3-128
		c1.4-5.3,6.9-8.5,12.2-7.1c5.3,1.4,8.5,6.9,7.1,12.2l-34.3,128C312.8,284.2,308.8,287.1,304.3,287.1L304.3,287.1z"/>
</g>
</svg>
