<?xml version="1.0" encoding="utf-8"?>
<!-- Generator: Adobe Illustrator 23.0.3, SVG Export Plug-In . SVG Version: 6.00 Build 0)  -->
<svg version="1.1" id="Capa_1" xmlns="http://www.w3.org/2000/svg" xmlns:xlink="http://www.w3.org/1999/xlink" x="0px" y="0px"
	 viewBox="0 0 190 29" style="enable-background:new 0 0 190 29;" xml:space="preserve">
<style type="text/css">
	.st0{enable-background:new    ;}
	.st1{fill:#1E415A;}
	.st2{fill:#8ACDA1;}
</style>
<title>POSTOPIA</title>
<desc>Created with Sketch.</desc>
<g id="Mobile">
	<g id="iPhone-XR" transform="translate(-28.000000, -85.000000)">
		<g class="st0">
			<path class="st1" d="M28.9,113V85.3h11.7c1.3,0,2.5,0.3,3.5,0.8c1.1,0.5,2,1.2,2.8,2.1c0.8,0.9,1.4,1.9,1.8,3
				c0.4,1.1,0.7,2.2,0.7,3.3c0,1.2-0.2,2.3-0.6,3.4c-0.4,1.1-1,2.1-1.8,2.9c-0.8,0.9-1.7,1.5-2.7,2.1c-1.1,0.5-2.2,0.8-3.5,0.8h-6.6
				v9.3H28.9z M34.3,99h6.2c1,0,1.8-0.4,2.5-1.2c0.7-0.8,1-1.9,1-3.3c0-0.7-0.1-1.3-0.3-1.9c-0.2-0.6-0.5-1-0.8-1.4
				c-0.3-0.4-0.7-0.7-1.2-0.9c-0.5-0.2-0.9-0.3-1.4-0.3h-6V99z"/>
			<path class="st1" d="M65,113.2c-2,0-3.9-0.4-5.5-1.2c-1.7-0.8-3.1-1.8-4.3-3.2c-1.2-1.3-2.1-2.8-2.7-4.5c-0.7-1.7-1-3.4-1-5.2
				c0-1.8,0.3-3.6,1-5.3c0.7-1.7,1.6-3.2,2.8-4.5s2.6-2.3,4.3-3.1c1.7-0.8,3.5-1.2,5.4-1.2c2,0,3.8,0.4,5.5,1.2
				c1.7,0.8,3.1,1.9,4.2,3.2c1.2,1.3,2.1,2.8,2.7,4.5c0.6,1.7,1,3.4,1,5.1c0,1.8-0.3,3.6-1,5.3c-0.7,1.7-1.6,3.2-2.8,4.4
				c-1.2,1.3-2.6,2.3-4.3,3.1C68.8,112.8,66.9,113.2,65,113.2z M57,99.2c0,1.2,0.2,2.4,0.5,3.5c0.4,1.1,0.9,2.1,1.6,3
				c0.7,0.9,1.5,1.5,2.5,2.1c1,0.5,2.1,0.8,3.4,0.8c1.3,0,2.5-0.3,3.5-0.8s1.8-1.2,2.5-2.1c0.7-0.9,1.2-1.9,1.6-3
				c0.4-1.1,0.5-2.2,0.5-3.4c0-1.2-0.2-2.4-0.6-3.5c-0.4-1.1-0.9-2.1-1.6-3c-0.7-0.9-1.5-1.5-2.5-2c-1-0.5-2.1-0.8-3.4-0.8
				c-1.3,0-2.5,0.3-3.5,0.8s-1.9,1.2-2.5,2.1c-0.7,0.9-1.2,1.9-1.5,3C57.1,96.9,57,98,57,99.2z"/>
			<path class="st1" d="M99.2,92.6c-0.2-0.2-0.5-0.4-1-0.7c-0.5-0.3-1.1-0.6-1.8-0.9c-0.7-0.3-1.4-0.6-2.2-0.8
				c-0.8-0.2-1.6-0.3-2.5-0.3c-1.5,0-2.6,0.3-3.3,0.8c-0.7,0.5-1.1,1.3-1.1,2.3c0,0.6,0.1,1,0.4,1.4s0.7,0.7,1.2,1
				c0.5,0.3,1.2,0.5,2,0.8c0.8,0.2,1.7,0.5,2.7,0.7c1.4,0.4,2.6,0.8,3.7,1.2s2,0.9,2.8,1.6c0.8,0.6,1.4,1.4,1.8,2.2
				c0.4,0.9,0.6,1.9,0.6,3.2c0,1.5-0.3,2.7-0.8,3.8c-0.6,1.1-1.3,1.9-2.3,2.6c-0.9,0.6-2,1.1-3.3,1.4s-2.5,0.4-3.9,0.4
				c-2.1,0-4.1-0.3-6.2-0.9c-2-0.6-3.8-1.5-5.5-2.7l2.4-4.6c0.2,0.2,0.7,0.5,1.3,0.9c0.6,0.4,1.3,0.8,2.2,1.1c0.8,0.4,1.8,0.7,2.8,1
				c1,0.3,2.1,0.4,3.1,0.4c3,0,4.4-0.9,4.4-2.8c0-0.6-0.2-1.1-0.5-1.5c-0.3-0.4-0.8-0.8-1.4-1.1c-0.6-0.3-1.4-0.6-2.3-0.9
				c-0.9-0.3-1.9-0.5-3-0.9c-1.3-0.4-2.5-0.8-3.5-1.2s-1.8-0.9-2.4-1.5c-0.7-0.6-1.1-1.3-1.5-2c-0.3-0.8-0.5-1.7-0.5-2.8
				c0-1.4,0.3-2.7,0.8-3.7c0.5-1.1,1.2-2,2.2-2.7c0.9-0.7,2-1.3,3.2-1.7c1.2-0.4,2.5-0.6,3.9-0.6c2,0,3.7,0.3,5.4,0.9
				c1.6,0.6,3.1,1.3,4.3,2.2L99.2,92.6z"/>
			<path class="st1" d="M127.1,90h-8.9v23h-5.3V90H104v-4.7h23V90z"/>
		</g>
		<g class="st0">
			<path class="st2" d="M143.1,113.2c-2,0-3.7-0.4-5.3-1.2c-1.6-0.8-3-1.8-4.1-3.2c-1.1-1.3-2-2.8-2.7-4.5c-0.6-1.7-0.9-3.4-0.9-5.2
				c0-1.8,0.3-3.6,1-5.3c0.7-1.7,1.6-3.2,2.7-4.5s2.6-2.3,4.2-3.1c1.6-0.8,3.3-1.2,5.2-1.2c2,0,3.7,0.4,5.3,1.2
				c1.6,0.8,3,1.9,4.1,3.2c1.1,1.3,2,2.8,2.7,4.5s0.9,3.4,0.9,5.1c0,1.8-0.3,3.6-1,5.3c-0.7,1.7-1.6,3.2-2.7,4.5
				c-1.2,1.3-2.5,2.3-4.1,3.1C146.7,112.8,145,113.2,143.1,113.2z M133.6,99.2c0,1.4,0.2,2.8,0.7,4.1c0.5,1.3,1.1,2.5,1.9,3.5
				c0.8,1,1.8,1.8,3,2.4c1.2,0.6,2.5,0.9,3.9,0.9c1.5,0,2.8-0.3,4-1c1.2-0.6,2.2-1.5,3-2.5c0.8-1,1.4-2.2,1.9-3.5
				c0.4-1.3,0.6-2.6,0.6-3.9c0-1.4-0.2-2.8-0.7-4.1c-0.5-1.3-1.1-2.5-1.9-3.5c-0.8-1-1.8-1.8-3-2.4c-1.2-0.6-2.4-0.9-3.8-0.9
				c-1.5,0-2.8,0.3-4,0.9s-2.2,1.4-3,2.5c-0.8,1-1.4,2.2-1.9,3.5C133.8,96.5,133.6,97.8,133.6,99.2z"/>
			<path class="st2" d="M161,113V85.3h11.5c1.2,0,2.3,0.3,3.4,0.8s1.9,1.2,2.7,2s1.3,1.8,1.7,2.8s0.6,2.1,0.6,3.2
				c0,1.1-0.2,2.2-0.6,3.3c-0.4,1.1-0.9,2-1.7,2.8c-0.7,0.8-1.6,1.5-2.6,2s-2.1,0.7-3.3,0.7h-8.3v9.9H161z M164.5,99.9h8.1
				c0.7,0,1.4-0.1,2-0.4c0.6-0.3,1.1-0.7,1.5-1.2c0.4-0.5,0.7-1.2,1-1.9c0.2-0.7,0.4-1.4,0.4-2.2c0-0.8-0.1-1.6-0.4-2.3
				c-0.3-0.7-0.6-1.3-1.1-1.8s-1-0.9-1.6-1.2c-0.6-0.3-1.3-0.4-1.9-0.4h-7.8V99.9z"/>
			<path class="st2" d="M185.3,113V85.3h3.5V113H185.3z"/>
			<path class="st2" d="M203.9,85.3h3l11.3,27.7h-3.7l-3.3-8.1h-11.6l-3.2,8.1h-3.7L203.9,85.3z M210.4,102.2l-5-12.8l-5.1,12.8
				H210.4z"/>
		</g>
	</g>
</g>
</svg>
